# xmcd
# 
# Track frame offsets:
#	150
#	14592
#	36493
#	53634
#	85478
#	102404
#	122870
#	139598
#	158124
#	175507
#	192032
#
# Disc length: 2926 seconds
#
# Revision: 1
# Processed by: cddbd v1.4PL0 Copyright (c) Steve Scherf et al.
# Submitted via: Audio-CD-Archiv 2.10.441
#
DISCID=8f0b6c0b
DTITLE=Virginian and Friends - Asphalt Cowboy
DYEAR=1900
DGENRE=country
TTITLE0=Blut, Schweiﬂ und Tr‰nen
TTITLE1=Asphalt Cowboys
TTITLE2=Zieh¥ den Speer aus meiner Brust
TTITLE3=Fremder in der Stadt
TTITLE4=Schwerelos
TTITLE5=Ein Mensch
TTITLE6=Ich mag¥ ...
TTITLE7=Samstag Nacht
TTITLE8=Sprich mit mir
TTITLE9=Ich erinnere mich daran
TTITLE10=Und dann schlieﬂe ich die Augen
EXTD=
EXTT0=
EXTT1=
EXTT2=
EXTT3=
EXTT4=
EXTT5=
EXTT6=
EXTT7=
EXTT8=
EXTT9=
EXTT10=
PLAYORDER=
